# xmcd
#
# Track frame offsets: 
#        150
#        29229
#        57141
#        85124
#        116091
#        143902
#        162022
#        188646
#        217431
#        234524
#        250689
#        278658
#
# Disc length: 3993 seconds
#
# Revision: 0
# Processed by: cddbd v1.5.1PL2 Copyright (c) Steve Scherf et al.
# Submitted via: ExactAudioCopy v0.95b4
#
DISCID=ab0f970c
DTITLE=Soderberg Beata - Beso
DYEAR=2006
DGENRE=Tango
TTITLE0=La Glorieta
TTITLE1=Caricia de Madrid
TTITLE2=Sin otoño
TTITLE3=El gaucho
TTITLE4=Arboles de Buenos Aires
TTITLE5=Vos me lo contaste
TTITLE6=Ducati
TTITLE7=Ladrón
TTITLE8=Despues de ayer
TTITLE9=Cerca
TTITLE10=La fuente de Mataderos
TTITLE11=Para vos
EXTD=
EXTT0=
EXTT1=
EXTT2=
EXTT3=
EXTT4=
EXTT5=
EXTT6=
EXTT7=
EXTT8=
EXTT9=
EXTT10=
EXTT11=
PLAYORDER=
